<?xml version="1.0" standalone="no"?>
<!DOCTYPE svg PUBLIC "-//W3C//DTD SVG 20010904//EN"
 "http://www.w3.org/TR/2001/REC-SVG-20010904/DTD/svg10.dtd">
<svg version="1.0" xmlns="http://www.w3.org/2000/svg"
 width="200.000000pt" height="200.000000pt" viewBox="0 0 200.000000 200.000000"
 preserveAspectRatio="xMidYMid meet">
<metadata>
Created by potrace 1.14, written by Peter Selinger 2001-2017
</metadata>
<g transform="translate(0.000000,200.000000) scale(0.100000,-0.100000)"
fill="#000000" stroke="none">
<path d="M12 1988 c-15 -15 -18 -1499 -2 -1528 16 -29 173 -76 337 -100 110
-15 463 -12 600 5 295 39 627 146 790 255 121 82 213 200 213 276 0 17 -11 52
-25 78 -14 26 -25 49 -25 52 0 8 56 -24 69 -40 8 -9 17 -16 22 -16 15 0 11
1004 -3 1018 -17 17 -1959 17 -1976 0z m330 -375 c16 -14 18 -33 18 -165 0
-81 2 -148 4 -148 2 0 23 11 47 24 57 32 135 45 199 35 57 -9 131 -48 154 -80
13 -19 11 -26 -15 -76 -16 -30 -29 -62 -29 -72 0 -9 -12 5 -26 30 -34 62 -83
89 -159 89 -44 0 -69 -6 -100 -25 -68 -40 -75 -64 -75 -277 0 -150 -3 -188
-16 -206 -18 -26 -60 -29 -86 -5 -17 15 -18 42 -18 436 0 377 2 422 17 439 20
22 61 23 85 1z m1282 -270 c58 -19 126 -76 126 -107 0 -53 -56 -61 -125 -17
-58 37 -108 46 -168 31 -57 -15 -82 -40 -73 -74 9 -36 39 -53 147 -79 172 -43
220 -80 227 -176 8 -112 -54 -178 -187 -201 -180 -30 -390 78 -314 162 23 26
55 22 110 -12 62 -40 114 -53 174 -45 77 11 123 59 99 105 -14 27 -74 56 -140
68 -115 22 -188 60 -215 112 -8 16 -15 54 -15 84 0 66 30 108 97 138 89 39
159 42 257 11z m-416 -3 c23 -10 42 -25 42 -33 0 -7 -13 -26 -29 -41 -28 -26
-33 -28 -83 -20 -96 15 -142 1 -196 -60 -69 -79 -69 -213 0 -292 46 -52 83
-68 158 -67 61 1 67 -1 109 -38 l45 -38 -29 -11 c-101 -39 -177 -36 -271 9
-71 34 -125 88 -156 156 -44 97 -22 270 45 345 34 39 90 79 133 94 59 22 180
20 232 -4z m-253 -648 c-3 -3 -11 0 -18 7 -9 10 -8 11 6 5 10 -3 15 -9 12 -12z
m74 -18 c10 -9 -35 -3 -49 6 -11 8 -7 9 15 4 17 -4 32 -8 34 -10z"/>
<path d="M1954 649 c-57 -60 -151 -123 -269 -180 -245 -119 -468 -178 -809
-214 -275 -30 -545 -15 -760 39 -55 14 -101 25 -102 23 -2 -1 -4 -69 -5 -151
-1 -117 1 -150 12 -157 8 -5 438 -9 977 -9 927 0 963 1 981 19 17 17 18 37 16
335 -2 175 -5 319 -7 322 -3 2 -18 -10 -34 -27z"/>
</g>
</svg>
